<?xml version="1.0" standalone="no"?><svg xmlns="http://www.w3.org/2000/svg" viewBox="0 0 1440 320"><path fill="#FFC700" fill-opacity="1" d="M0,32L0,64L68.6,64L68.6,96L137.1,96L137.1,64L205.7,64L205.7,128L274.3,128L274.3,224L342.9,224L342.9,224L411.4,224L411.4,224L480,224L480,288L548.6,288L548.6,256L617.1,256L617.1,224L685.7,224L685.7,224L754.3,224L754.3,64L822.9,64L822.9,288L891.4,288L891.4,288L960,288L960,128L1028.6,128L1028.6,32L1097.1,32L1097.1,256L1165.7,256L1165.7,192L1234.3,192L1234.3,32L1302.9,32L1302.9,0L1371.4,0L1371.4,32L1440,32L1440,0L1371.4,0L1371.4,0L1302.9,0L1302.9,0L1234.3,0L1234.3,0L1165.7,0L1165.7,0L1097.1,0L1097.1,0L1028.6,0L1028.6,0L960,0L960,0L891.4,0L891.4,0L822.9,0L822.9,0L754.3,0L754.3,0L685.7,0L685.7,0L617.1,0L617.1,0L548.6,0L548.6,0L480,0L480,0L411.4,0L411.4,0L342.9,0L342.9,0L274.3,0L274.3,0L205.7,0L205.7,0L137.1,0L137.1,0L68.6,0L68.6,0L0,0L0,0Z"></path></svg>